<svg width="40" height="40" viewBox="0 0 40 40" fill="none" xmlns="http://www.w3.org/2000/svg">
<path fill-rule="evenodd" clip-rule="evenodd" d="M8.09017 13.3333C6.38352 13.3333 5 14.7168 5 16.4235V27.3333C5 30.1617 5 31.576 5.87868 32.4546C6.75736 33.3333 8.17157 33.3333 11 33.3333H29C31.8284 33.3333 33.2426 33.3333 34.1213 32.4546C35 31.576 35 30.1617 35 27.3333V16.4235C35 14.7168 33.6165 13.3333 31.9098 13.3333C30.7394 13.3333 29.6693 12.672 29.1459 11.6251L27.7722 8.8778C27.2343 7.80197 26.9654 7.26405 26.4821 6.96535C25.9988 6.66666 25.3973 6.66666 24.1945 6.66666H15.8055C14.6027 6.66666 14.0012 6.66666 13.5179 6.96535C13.0346 7.26405 12.7657 7.80197 12.2278 8.8778L10.8541 11.6251C10.3307 12.672 9.26064 13.3333 8.09017 13.3333ZM24.6667 21.6667C24.6667 24.244 22.5773 26.3333 20 26.3333C17.4227 26.3333 15.3333 24.244 15.3333 21.6667C15.3333 19.0893 17.4227 17 20 17C22.5773 17 24.6667 19.0893 24.6667 21.6667ZM26.6667 21.6667C26.6667 25.3486 23.6819 28.3333 20 28.3333C16.3181 28.3333 13.3333 25.3486 13.3333 21.6667C13.3333 17.9848 16.3181 15 20 15C23.6819 15 26.6667 17.9848 26.6667 21.6667Z" fill="#FF8D5C"/>
</svg>
