<svg width="40" height="40" viewBox="0 0 40 40" fill="none" xmlns="http://www.w3.org/2000/svg">
<path fill-rule="evenodd" clip-rule="evenodd" d="M4.21201 5.87868C3.33333 6.75736 3.33333 8.17157 3.33333 11V29C3.33333 31.8284 3.33333 33.2426 4.21201 34.1213C5.09069 35 6.50491 35 9.33334 35H30.6667C33.4951 35 34.9093 35 35.788 34.1213C36.6667 33.2426 36.6667 31.8284 36.6667 29V11C36.6667 8.17157 36.6667 6.75736 35.788 5.87868C34.9093 5 33.4951 5 30.6667 5H9.33333C6.50491 5 5.09069 5 4.21201 5.87868ZM26.6667 14C27.219 14 27.6667 14.4477 27.6667 15V28.3333C27.6667 28.8856 27.219 29.3333 26.6667 29.3333C26.1144 29.3333 25.6667 28.8856 25.6667 28.3333V15C25.6667 14.4477 26.1144 14 26.6667 14ZM14.3333 18.3333C14.3333 17.781 13.8856 17.3333 13.3333 17.3333C12.781 17.3333 12.3333 17.781 12.3333 18.3333V28.3333C12.3333 28.8856 12.781 29.3333 13.3333 29.3333C13.8856 29.3333 14.3333 28.8856 14.3333 28.3333V18.3333ZM21 21.6667C21 21.1144 20.5523 20.6667 20 20.6667C19.4477 20.6667 19 21.1144 19 21.6667V28.3333C19 28.8856 19.4477 29.3333 20 29.3333C20.5523 29.3333 21 28.8856 21 28.3333V21.6667Z" fill="#FF8D5C"/>
</svg>
