<svg width="40" height="40" viewBox="0 0 40 40" fill="none" xmlns="http://www.w3.org/2000/svg">
<path d="M15.8333 13.3334L27.5 9.16669L22.5 17.5L20.8333 25.8334L18.3333 29.1667L9.16666 27.5L9.99999 24.1667L15.8333 13.3334Z" fill="#FF8D5C"/>
<path d="M10 35L9.68487 29.9578C8.95249 18.2396 18.2589 8.33331 30 8.33331V8.33331L27.9711 9.95643C26.2095 11.3657 25.3288 12.0703 24.6206 12.8828C23.1987 14.5142 22.2443 16.4997 21.8587 18.6292C21.6667 19.6897 21.6667 20.8177 21.6667 23.0736V23.0736C21.6667 24.8726 21.6667 25.7721 21.4155 26.4471C20.9061 27.8162 19.6907 28.7987 18.2452 29.01C17.5327 29.1141 16.6531 28.9257 14.894 28.5487L10 27.5" stroke="#FF8D5C" stroke-width="2"/>
</svg>
