<svg width="40" height="40" viewBox="0 0 40 40" fill="none" xmlns="http://www.w3.org/2000/svg">
<circle cx="29.1667" cy="29.1667" r="4.16667" stroke="#FF8D5C" stroke-width="2"/>
<path d="M35 35L32.5 32.5" stroke="#FF8D5C" stroke-width="2" stroke-linecap="round"/>
<path fill-rule="evenodd" clip-rule="evenodd" d="M6.66666 11.3333C6.66666 7.56208 6.66666 5.67646 7.83823 4.50489C9.0098 3.33331 10.8954 3.33331 14.6667 3.33331H25.3333C29.1046 3.33331 30.9902 3.33331 32.1617 4.50489C33.3333 5.67646 33.3333 7.56208 33.3333 11.3333V23.9622C32.192 23.0472 30.7432 22.5 29.1667 22.5C25.4848 22.5 22.5 25.4847 22.5 29.1666C22.5 32.8485 25.4848 35.8333 29.1667 35.8333C30.0904 35.8333 30.9703 35.6454 31.7702 35.3058L32.0583 35.5938C30.8795 36.6666 28.9955 36.6666 25.3333 36.6666H14.6666C10.8954 36.6666 9.0098 36.6666 7.83823 35.4951C6.66666 34.3235 6.66666 32.4379 6.66666 28.6666V11.3333ZM29.1667 27.5C28.2462 27.5 27.5 28.2462 27.5 29.1666C27.5 30.0871 28.2462 30.8333 29.1667 30.8333C30.0871 30.8333 30.8333 30.0871 30.8333 29.1666C30.8333 28.2462 30.0871 27.5 29.1667 27.5ZM13.3333 8.99998C12.781 8.99998 12.3333 9.44769 12.3333 9.99998C12.3333 10.5523 12.781 11 13.3333 11H20C20.5523 11 21 10.5523 21 9.99998C21 9.44769 20.5523 8.99998 20 8.99998H13.3333ZM13.3333 15.6666C12.781 15.6666 12.3333 16.1144 12.3333 16.6666C12.3333 17.2189 12.781 17.6666 13.3333 17.6666L23.3333 17.6666C23.8856 17.6666 24.3333 17.2189 24.3333 16.6666C24.3333 16.1144 23.8856 15.6666 23.3333 15.6666L13.3333 15.6666ZM13.3333 22.3333C12.781 22.3333 12.3333 22.781 12.3333 23.3333C12.3333 23.8856 12.781 24.3333 13.3333 24.3333H18.3333C18.8856 24.3333 19.3333 23.8856 19.3333 23.3333C19.3333 22.781 18.8856 22.3333 18.3333 22.3333H13.3333Z" fill="#FF8D5C"/>
</svg>
