<svg width="16" height="11" viewBox="0 0 16 11" fill="none" xmlns="http://www.w3.org/2000/svg">
<path d="M0 1.28216V0.909091C0 0.667985 0.105357 0.436754 0.292893 0.266267C0.48043 0.095779 0.734784 0 1 0L15 0C15.2652 0 15.5196 0.095779 15.7071 0.266267C15.8946 0.436754 16 0.667985 16 0.909091V1.28216L8 5.82761L0 1.28216ZM8.265 6.74921C8.18551 6.79431 8.0937 6.81822 8 6.81822C7.9063 6.81822 7.81449 6.79431 7.735 6.74921L0 2.3542V10C0 10.2411 0.105357 10.4723 0.292893 10.6428C0.48043 10.8133 0.734784 10.9091 1 10.9091H15C15.2652 10.9091 15.5196 10.8133 15.7071 10.6428C15.8946 10.4723 16 10.2411 16 10V2.3542L8.265 6.74921Z" fill="black"/>
</svg>
