<svg width="45" height="40" viewBox="0 0 45 40" fill="none" xmlns="http://www.w3.org/2000/svg">
<path d="M21.6877 5.36101L9.55608 10.7529C8.67276 11.1454 8.23111 11.3417 8.23111 11.6667C8.23111 11.9916 8.67276 12.1879 9.55608 12.5805L21.6877 17.9723C22.0878 18.1501 22.2878 18.239 22.5 18.239C22.7122 18.239 22.9122 18.1501 23.3123 17.9723L35.4439 12.5805C36.3272 12.1879 36.7689 11.9916 36.7689 11.6667C36.7689 11.3417 36.3272 11.1454 35.4439 10.7529L23.3123 5.36101C22.9122 5.18322 22.7122 5.09432 22.5 5.09432C22.2878 5.09432 22.0878 5.18322 21.6877 5.36101Z" fill="#FA5F1A"/>
<path fill-rule="evenodd" clip-rule="evenodd" d="M13.1246 17.5006L20.8754 20.9455C21.6755 21.3011 22.0756 21.4789 22.5 21.4789C22.9244 21.4789 23.3245 21.3011 24.1245 20.9455L24.1245 20.9455L31.8754 17.5006L35.4439 19.0866C36.3272 19.4792 36.7689 19.6755 36.7689 20.0005C36.7689 20.3254 36.3272 20.5217 35.4439 20.9143L23.3123 26.3061C22.9122 26.4839 22.7122 26.5728 22.5 26.5728C22.2878 26.5728 22.0878 26.4839 21.6877 26.3061L9.55608 20.9143C8.67277 20.5217 8.23111 20.3254 8.23111 20.0005C8.23111 19.6755 8.67277 19.4792 9.55608 19.0866L13.1246 17.5006Z" fill="#FA5F1A"/>
<path fill-rule="evenodd" clip-rule="evenodd" d="M13.1237 25.834L20.8755 29.2792L20.8755 29.2792C21.6756 29.6348 22.0756 29.8126 22.5 29.8126C22.9245 29.8126 23.3245 29.6348 24.1246 29.2792L24.1246 29.2792L31.8764 25.834L35.4439 27.4196C36.3272 27.8122 36.7689 28.0085 36.7689 28.3334C36.7689 28.6583 36.3272 28.8546 35.4439 29.2472L23.3123 34.639C22.9122 34.8168 22.7122 34.9057 22.5 34.9057C22.2878 34.9057 22.0878 34.8168 21.6877 34.639L9.55608 29.2472C8.67277 28.8546 8.23111 28.6583 8.23111 28.3334C8.23111 28.0085 8.67277 27.8122 9.55608 27.4196L9.55608 27.4196L13.1237 25.834Z" fill="#FA5F1A"/>
</svg>
