<svg width="34" height="30" viewBox="0 0 34 30" fill="none" xmlns="http://www.w3.org/2000/svg">
<path fill-rule="evenodd" clip-rule="evenodd" d="M1.21201 0.87868C0.333334 1.75736 0.333334 3.17157 0.333334 6V24C0.333334 26.8284 0.333334 28.2426 1.21201 29.1213C2.09069 30 3.50491 30 6.33334 30H27.6667C30.4951 30 31.9093 30 32.788 29.1213C33.6667 28.2426 33.6667 26.8284 33.6667 24V6C33.6667 3.17157 33.6667 1.75736 32.788 0.87868C31.9093 0 30.4951 0 27.6667 0H6.33333C3.50491 0 2.09069 0 1.21201 0.87868ZM23.6667 9C24.219 9 24.6667 9.44772 24.6667 10V23.3333C24.6667 23.8856 24.219 24.3333 23.6667 24.3333C23.1144 24.3333 22.6667 23.8856 22.6667 23.3333V10C22.6667 9.44772 23.1144 9 23.6667 9ZM11.3333 13.3333C11.3333 12.781 10.8856 12.3333 10.3333 12.3333C9.78105 12.3333 9.33333 12.781 9.33333 13.3333V23.3333C9.33333 23.8856 9.78105 24.3333 10.3333 24.3333C10.8856 24.3333 11.3333 23.8856 11.3333 23.3333V13.3333ZM18 16.6667C18 16.1144 17.5523 15.6667 17 15.6667C16.4477 15.6667 16 16.1144 16 16.6667V23.3333C16 23.8856 16.4477 24.3333 17 24.3333C17.5523 24.3333 18 23.8856 18 23.3333V16.6667Z" fill="#FF8D5C"/>
</svg>
