<svg width="16" height="18" viewBox="0 0 16 18" fill="none" xmlns="http://www.w3.org/2000/svg">
<path d="M11.1908 7.22922C11.1908 7.77141 11.5114 8.13287 11.9923 8.13287C12.4732 8.13287 12.7939 7.77141 12.7939 7.22922C12.7939 5.24119 11.3511 3.61461 9.58772 3.61461C9.1068 3.61461 8.78619 3.97607 8.78619 4.51826C8.78619 5.06045 9.1068 5.42192 9.58772 5.42192C10.4694 5.42192 11.1908 6.2352 11.1908 7.22922ZM13.916 9.94018C13.7557 9.94018 13.5954 9.84981 13.3549 9.84981C13.0343 9.75945 12.6336 9.66908 12.3129 9.48835C11.5114 9.12689 10.7099 9.57872 10.3091 10.392L10.1488 10.8438C8.54573 9.84981 7.26327 8.40397 6.38158 6.59666L6.78235 6.41593C7.50373 6.05447 7.9045 5.06045 7.58389 4.1568C7.42358 3.79534 7.34342 3.34351 7.26327 2.98205C7.26327 2.71096 7.18312 2.53023 7.18312 2.3495C7.02281 1.08438 5.98082 0.0903652 4.77851 0.0903652H2.37391C1.65253 0.0903652 1.0113 0.451826 0.610533 0.994018C0.129612 1.62657 -0.110849 2.3495 0.0494583 3.16278C0.450226 6.95813 1.97314 10.392 4.37775 13.103C6.78235 15.8139 9.90834 17.5309 13.1946 17.9827C13.916 18.0731 14.5572 17.802 15.1183 17.3501C15.5992 16.8079 15.9198 16.085 15.9198 15.3621V12.6511C15.9198 11.2957 15.1183 10.1209 13.916 9.94018ZM9.58772 0C9.42741 0 9.18695 0 9.02665 0C8.62588 0 8.22511 0.451826 8.30527 0.994018C8.30527 1.44584 8.70603 1.89767 9.18695 1.80731C9.34726 1.80731 9.42741 1.80731 9.58772 1.80731C12.2328 1.80731 14.3969 4.24717 14.3969 7.22922C14.3969 7.40995 14.3969 7.50032 14.3969 7.68105C14.3969 8.13287 14.7175 8.5847 15.1183 8.67507H15.1985C15.5992 8.67507 16 8.3136 16 7.86178C16 7.68105 16 7.40995 16 7.22922C16 3.25315 13.1145 0 9.58772 0Z" fill="black"/>
</svg>
