<svg width="25" height="19" viewBox="0 0 25 19" fill="none" xmlns="http://www.w3.org/2000/svg">
<path d="M11.6424 1.36536L9.9969 0C3.80207 3.51093 0.898245 7.50949 0.123891 11.9957C-0.456874 15.7017 0.995039 18.6275 4.67322 18.6275C7.28666 18.6275 9.80331 16.872 10.3841 13.9462C10.868 10.5328 8.93216 8.48475 6.51231 7.99713C7.48025 4.68125 11.5456 1.36536 11.6424 1.36536ZM19.9667 7.80208C21.0314 4.58372 24.9032 1.36536 25 1.36536L23.3545 0C17.1597 3.51093 14.2558 7.50949 13.4815 11.9957C12.9007 15.7017 14.3526 18.6275 18.0308 18.6275C20.6443 18.6275 23.1609 16.872 23.6449 13.9462C24.2256 10.5328 22.3866 8.28971 19.9667 7.80208Z" fill="url(#paint0_radial_28_622)"/>
<defs>
<radialGradient id="paint0_radial_28_622" cx="0" cy="0" r="1" gradientUnits="userSpaceOnUse" gradientTransform="translate(7.14286 3.19328) rotate(60.9542) scale(17.6545 21.2098)">
<stop stop-color="#FFA800"/>
<stop offset="1" stop-color="#FF4D00"/>
</radialGradient>
</defs>
</svg>
